<?xml version="1.0" encoding="utf-8"?>
<!-- Generator: Adobe Illustrator 23.0.1, SVG Export Plug-In . SVG Version: 6.00 Build 0)  -->
<svg version="1.1" id="图层_1" xmlns="http://www.w3.org/2000/svg" xmlns:xlink="http://www.w3.org/1999/xlink" x="0px" y="0px"
	 viewBox="0 0 500 447.6" style="enable-background:new 0 0 500 447.6;" xml:space="preserve">
<style type="text/css">
	.st0{fill:#42C67E;}
</style>
<g>
	<path class="st0" d="M77.5,181.4c-6.3-1.5-10.9,1.2-11.9,6c-1.2,5,1.9,9.1,8.2,10.6c6.3,1.5,11.1-1.2,12.2-6
		C87.2,187.2,83.8,182.9,77.5,181.4z M84,191.5c-0.7,3.9-4.6,5.6-9.7,4.4c-4.9-0.9-7.5-4-6.8-7.7c0.7-3.7,4.3-5.6,9.4-4.4
		C82,184.7,84.7,187.9,84,191.5z"/>
	<path class="st0" d="M85.4,148c-3.9-1.7-6.3,0.2-8,4.1l-2.4,5.6l18.6,8l1-2.2l-8-3.4l1.5-3.4l9.9-1.2l1.2-2.2l-10.4,1.2
		C89.3,151.6,88.3,149.2,85.4,148z M86.2,156.2l-1.5,3.1l-7.3-3.2l1.5-3.1c1.5-2.9,3.2-4.3,5.6-3.1
		C86.9,151.1,87.4,153.3,86.2,156.2z"/>
	<polygon class="st0" points="91,126.2 108.2,137.1 109.4,135.2 92.2,124.3 	"/>
	<path class="st0" d="M122.6,101.5l-4.4,4.8l1.5,1.2l2.9-3.4l4.1,3.6c0,0.9-0.7,2.4-1.7,3.6c-2.9,3.4-7,2.9-10.9-0.5
		c-3.9-3.3-4.6-7.5-1.7-10.6c1.5-1.4,2.9-1.9,4.4-1.9l-0.2-1.9c-1.5,0-3.7,0.5-5.6,2.7c-3.6,3.9-3.1,9.4,1.7,13.8
		c4.9,4.3,10.2,4.1,13.8,0.2c1.9-1.9,2.6-4.1,2.4-6L122.6,101.5z"/>
	<polygon class="st0" points="132.3,79.3 144.9,95 146.6,93.5 134,77.8 	"/>
	<path class="st0" d="M163.6,58.8l5.3,9.4c1,1.7,2.2,3.6,3.4,5.3l-3.9-2.7l-13.1-7.7l-1.9,1.2l9.4,17.8l1.9-1l-5.3-9.7
		c-0.9-1.9-2.1-3.6-3.1-5.3h0.2l3.6,2.9l13.1,7.7l2.2-1.2l-9.9-17.7L163.6,58.8z"/>
	<path class="st0" d="M191.7,46.6l-0.2,21.3l2.2-0.5v-6.8l7.3-2.4l3.5,5.3l2.4-0.7l-12.8-16.9L191.7,46.6z M199.8,56.8l-5.8,2v-3.4
		c0-2.5,0-4.9-0.2-7.3c1.4,1.9,2.6,3.9,4.1,5.8L199.8,56.8z"/>
	<polygon class="st0" points="226.2,57 223.5,38.9 221.3,39.1 224.3,59.4 235.4,57.7 235.2,55.8 	"/>
	<path class="st0" d="M253.7,43.1c-1,0-1.7,0.5-1.7,1.7c0,1,1,1.7,1.7,1.9c1,0,1.7-0.7,1.7-1.7C255.4,43.8,254.7,43.1,253.7,43.1z"
		/>
	<path class="st0" d="M290,38.3c-4.8-0.9-9.2,2.2-10.4,8.5c-1.2,6.3,1.4,10.9,6.1,11.9c5,1.2,9.4-2.2,10.6-8.5S294.8,39.3,290,38.3z
		 M294.1,49.7c-1.2,5.1-4.1,7.7-7.7,7.3c-3.7-0.7-5.4-4.6-4.4-9.7c0.9-5.1,4-7.7,7.7-7C293.4,41,295.1,44.6,294.1,49.7z"/>
	<path class="st0" d="M326,49.9l-5.8-2.4l-8,18.6l2.2,1l3.4-8l3.4,1.5l1.2,9.9l2.7,1l-1.2-10.2c2.9,0.5,5.3-0.5,6.5-3.4
		C331.8,54,329.9,51.6,326,49.9z M327.9,57c-1.2,2.4-3.4,2.9-6.3,1.7l-3.1-1.5l3.2-7l3.1,1.5C327.7,52.9,328.9,54.3,327.9,57z"/>
	<polygon class="st0" points="341.1,80.4 343,81.6 353.6,64.4 351.7,63.2 	"/>
	<path class="st0" d="M379,83.3c-3.9-3.6-9.4-3.1-13.8,1.7c-4.3,4.8-4.3,10.2-0.5,13.8c2.2,1.9,4.4,2.6,6.3,2.4l5.6-6.3l-4.8-4.4
		l-1.2,1.5l3.4,2.9l-3.6,4.1c-0.9,0-2.4-0.7-3.6-1.7c-3.4-2.9-2.9-7,0.5-10.9c3.3-3.9,7.5-4.4,10.6-1.7c1.4,1.5,1.9,2.9,1.9,4.4
		l1.9-0.2C381.7,87.4,381.2,85.2,379,83.3z"/>
	<polygon class="st0" points="398.6,104.3 382.9,117.1 384.4,118.8 400.1,106 	"/>
	<path class="st0" d="M427.1,270.1c6.3,1.2,10.9-1.5,11.9-6.3c0.9-4.8-2.2-9.2-8.5-10.4c-6.5-1.2-11.1,1.4-12.1,6.3
		C417.4,264.5,420.8,268.9,427.1,270.1z M420.3,260.2c0.7-3.7,4.6-5.4,9.7-4.4c5.1,0.9,7.7,4.1,7,7.7c-0.7,3.7-4.3,5.4-9.4,4.4
		C422.6,266.9,419.7,263.8,420.3,260.2z"/>
	<path class="st0" d="M420,304.1c3.6,1.4,6-0.5,7.7-4.4l2.4-5.8l-18.6-7.7l-1,2.2l8,3.4l-1.5,3.4l-9.9,1.2l-0.7,2.7l10.2-1.5
		C416.1,300.5,417.1,302.9,420,304.1z M418.6,295.4l1.5-3.1l7,2.9l-1.5,3.4c-1.2,2.9-2.6,4.1-5.3,3.1
		C417.9,300.5,417.4,298.3,418.6,295.4z"/>
	<polygon class="st0" points="414.3,325.5 397.1,314.9 395.9,316.8 413.1,327.4 	"/>
	<path class="st0" d="M383.1,350.3l4.4-4.8l-1.5-1.2l-2.9,3.4l-4.1-3.6c-0.2-0.9,0.5-2.4,1.5-3.6c2.9-3.1,7-2.9,10.9,0.5
		c4.1,3.3,4.6,7.5,1.9,10.6c-1.5,1.7-2.9,2.2-4.4,2.2l0.2,1.9c1.7,0,3.7-0.5,5.6-2.7c3.4-4.1,2.9-9.4-1.9-13.8
		c-5.1-4.3-10.4-4.1-13.6-0.8c-1.9,2.2-2.6,4.4-2.4,6.3L383.1,350.3z"/>
	<polygon class="st0" points="373.7,372.9 360.9,357.4 359.2,358.9 372,374.4 	"/>
	<path class="st0" d="M342.7,394.1l-5.6-9.4c-1-1.9-2.2-3.6-3.4-5.3l3.9,2.4l13.1,7.5l1.9-1.2l-9.9-17.5l-1.9,1l5.6,9.7
		c1.2,1.7,2.2,3.4,3.4,5.1l-3.9-2.4l-13.1-7.5l-2.2,1.2l10.2,17.4L342.7,394.1z"/>
	<path class="st0" d="M314.4,406.5v-21.3l-2.2,0.7v6.8l-7,2.4l-4.1-5.5l-2.2,0.7l13.1,16.9L314.4,406.5z M306.4,396.6l6.1-2.2v3.4
		c0,2.5,0,4.9,0.2,7.3c-1.2-1.9-2.6-3.9-4.1-5.8L306.4,396.6z"/>
	<polygon class="st0" points="279.8,396.3 282.7,414.4 284.9,414.2 282,394.2 270.9,395.9 271.1,397.8 	"/>
	<path class="st0" d="M250.5,409.1c1,0,1.7-0.7,1.7-1.9s-0.7-1.9-1.7-1.7c-1,0-1.7,0.7-1.7,1.7C248.8,408.4,249.5,409.1,250.5,409.1
		z"/>
	<path class="st0" d="M214.3,414.3c4.8,0.9,9.2-2.2,10.4-8.5c1.2-6.6-1.5-11.2-6.5-12.1c-4.8-1-9.2,2.4-10.4,8.7
		C206.6,408.7,209.5,413.4,214.3,414.3z M210.2,402.9c0.9-5.1,4.1-8,7.9-7.3c3.7,0.7,5.4,4.6,4.4,9.7c-0.9,5.1-4.1,7.7-7.7,7
		C210.9,411.6,209.2,408,210.2,402.9z"/>
	<path class="st0" d="M178.6,403.1l5.8,2.4l7.7-18.6l-2.2-1l-3.4,8l-3.4-1.5l-1.5-9.9l-2.4-0.7l1.5,10.2c-2.9-0.5-5.3,0.5-6.5,3.4
		C172.8,399.2,174.7,401.6,178.6,403.1z M176,395.8c1.2-2.4,3.4-2.9,6.3-1.7l3.4,1.5l-3.2,7l-3.4-1.5
		C176.2,399.9,175,398.5,176,395.8z"/>
	<polygon class="st0" points="163,372.8 161.1,371.6 150.7,388.8 152.6,390 	"/>
	<path class="st0" d="M125,370.4c4.1,3.4,9.7,2.9,13.8-1.9c4.1-5.1,3.9-10.4,0.5-13.8c-2.2-1.7-4.4-2.4-6.3-2.2l-5.6,6.3l4.8,4.4
		l1.2-1.5l-3.4-2.9l3.6-4.1c0.9-0.2,2.4,0.5,3.6,1.5c3.4,2.9,3.2,7-0.2,10.9c-3.3,3.8-7.5,4.6-10.6,1.9c-1.7-1.5-2.2-2.9-2.2-4.4
		l-1.9,0.2C122.3,366.5,122.8,368.5,125,370.4z"/>
	<polygon class="st0" points="104.9,349.6 120.4,336.5 118.9,334.8 103.4,347.9 	"/>
	<path class="st0" d="M496,224.9l-31.4-119.3l-29.6,7.8c-18.4-30.1-44.4-55.7-75.6-74C309.7,10.7,251.7,2.8,195.9,17.3
		C140.2,32.3,93.6,67.9,64.7,117.5c-18.2,31.2-28.2,66.3-29.3,101.6L5.7,227l31.5,119.3l29.4-7.8c18.4,30.2,44.5,55.8,75.6,74.1
		c32.9,19.2,70.3,29.4,108.1,29.4c18.3,0,37-2.4,55.5-7.2c55.7-14.8,102.3-50.4,131.1-100.1c17.9-30.7,28-65.9,29.3-101.9L496,224.9
		z M124.6,323.2c12.6,16.9,28.5,31.2,47.1,41.9c24.9,14.5,52.7,22,81,22c13.8,0,27.8-1.7,41.6-5.6c41.9-11.1,76.7-37.7,98.5-75
		c11-18.7,17.6-38.8,20.5-59.7l36.6-9.7c-1.4,30.3-10.5,60.5-26.4,87.9c-26.6,45.7-69.4,78.4-120.5,91.7
		c-16.9,4.4-33.9,6.5-50.6,6.5c-66.9,0-129.6-34.3-165.9-89.9L124.6,323.2z M128.8,322.1l280.4-74.2c-2.9,19.8-9.5,38.9-19.8,56.6
		c-21.3,36.3-55.2,62.4-96,73.1c-40.6,10.6-83.2,5.1-119.5-16.2C156.3,351.2,141.1,337.9,128.8,322.1z M82.3,334.4
		c37,57.7,101.3,93.2,170.1,93.2c16.9,0,34.4-2.2,51.5-6.8c52.3-13.8,95.8-47.2,122.9-93.6c16.4-28.2,25.7-59.4,27.2-91.2l9.2-2.4
		c-1.2,34.5-11.1,68.8-28.9,99.2C406,381.9,360,416.9,305,431.3c-18.1,4.7-36.5,7.1-54.6,7.1c-37.2,0-74.1-9.9-106.6-28.7
		c-30.5-17.8-56-42.7-74-72L82.3,334.4z M381.8,127.5c-12.6-16.7-28.9-31.1-47.6-42.1C297,63.7,253.5,57.9,211.6,69
		c-41.9,11.1-76.7,37.7-98.5,75c-11,18.7-17.6,39-20.5,60L55,214c1.8-30.8,10.6-60.9,26.5-88.2c26.6-45.7,69.4-78.4,120.5-91.7
		c16.9-4.4,33.9-6.8,50.8-6.8c34.6,0,68.5,9.2,99.2,26.9c27.3,15.9,50.1,37.6,66.7,63.5L381.8,127.5z M377.6,128.6L96.7,202.9
		c3.1-19.6,9.5-38.9,20.1-56.7c21.3-36.3,55.2-62.4,96-73.1c13.3-3.6,27.1-5.3,40.6-5.3c27.6,0,54.7,7.3,79.1,21.5
		C350.1,99.5,365.3,112.8,377.6,128.6z M422.9,116.6c-16.9-26.5-40.5-49.1-68.8-65.7C307.4,23.8,253,16.5,201,30.3
		c-52.3,13.8-95.8,47.2-122.9,93.6c-16.4,28.2-25.7,59.4-27.2,91.1l-12.3,3.3c1.4-35,11.3-69.2,28.8-99.1
		c28.4-49.1,74.2-84,129.2-98.5c17.9-4.8,36.3-7.2,54.7-7.2c36.7,0,73.5,10,106.5,28.9c30.5,17.8,56,42.6,73.9,71.9L422.9,116.6z
		 M10.8,229.9l450.9-119.3l29.5,111.3L40.3,341.2L10.8,229.9z"/>
	<path class="st0" d="M155.3,267c5.4,3.4,12.4,8,16,11.1l3.6-3.9c-3.7-2.7-10.7-7.3-16-10.4L155.3,267z"/>
	<path class="st0" d="M148.2,262.8l17.1-4.5l-6.5-24.9l-19.8,5.3c0.7-1.9,1.2-4.1,1.7-6.3l-6.3,0.7c-0.3,1.9-0.5,4.6-1,7l-13.5,3.6
		l6.5,24.9l16.9-4.4l4.4,16.9c0.2,0.8,0,1.3-1,1.5c-1.2,0.3-4.6,1.2-8.7,2.2c1,1.2,2.4,2.6,2.9,4.1c5.1-1.4,8.5-2.1,10.4-3.6
		c2-1.5,2.2-2.9,1.5-5.6L148.2,262.8z M125.7,246.4l28.8-7.5l1.7,6.5l-28.8,7.5L125.7,246.4z M130.3,263l-1.7-6.5l28.8-7.5l1.7,6.5
		L130.3,263z"/>
	<path class="st0" d="M124.3,287.2c1.5,0.2,3.9,1.2,5.1,1.7c2.9-4.8,6-11.9,8.2-17.9l-5.1-0.2C130.6,276.3,127.4,282.6,124.3,287.2z
		"/>
	<path class="st0" d="M111.7,237.9l50.6-13.3l-1.3-4.9l-55.6,14.8l5.1,19.6c2.9,10.6,6,25.6,2.9,37.7c1.5,0.3,3.9,1,5.1,1.5
		c3.4-12.6,0-29.3-2.9-40.4L111.7,237.9z"/>
	<polygon class="st0" points="222.5,208.1 217.7,209.3 227.9,247.5 232.7,246.3 	"/>
	<path class="st0" d="M234.1,197.5l-4.8,1.3l14.8,55.6c0.2,1.2-0.3,1.7-1.5,2.2c-1.4,0.5-5.8,1.7-10.6,2.7c1.2,1,2.4,3.2,3.1,4.4
		c6.3-1.4,10.2-2.6,12.1-4.1c1.9-1.4,2.7-3.1,1.7-6.5L234.1,197.5z"/>
	<path class="st0" d="M218.9,252.2c1.9,8.2,1.6,9.9-1.5,10.6l-11.6,3.2c-3.6,1-4.4,0.8-5.1-1.9l-6.5-24.9l15-3.9
		c1.7,8.5,2,12.1,1.5,13.3c-0.4,0.7-0.9,1-1.9,1.2c-1.2,0.2-3.3,0.7-6,1.2c0.9,1,1.9,2.6,2.4,4.1c2.9-0.5,5.3-1.2,6.8-1.7
		c1.7-0.7,2.7-1.4,3.4-2.9c1.2-2.2,0.5-7-1.9-19.1c0-0.7-0.5-2.2-0.5-2.2l-25.2,6.5l7.7,29.8c1.4,6,4.1,7,10.6,5.3l12.8-3.4
		c6.3-1.7,7-4.8,5.1-14.5C222.5,252.9,220.4,252.7,218.9,252.2z"/>
	<path class="st0" d="M215.7,229.7l2.7-4.4c-4.6-4.1-13.5-9.9-20.8-14.3c0-1.2,0.3-2.2,0.5-3.4l-4.9-0.2c-1.2,9.9-6.1,21.5-13.1,30
		c1.2,0.5,3.6,2,4.6,2.7c5.4-7,9.5-15.5,11.9-24.2C203.6,220.3,211.3,225.8,215.7,229.7z"/>
	<path class="st0" d="M275.7,221.6l5.1-1.2l-9-33.9l-5.1,1.2l4.6,17.7c-5.3,4.6-10.4,9.2-14,12.1l3.4,3.9c3.4-3.1,7.8-7.2,11.9-11.1
		L275.7,221.6z"/>
	<path class="st0" d="M297.5,226.5l25.8-6.8l-1.2-4.6l-28.1,7.5c0-2-0.3-3.7-0.5-5.6l-5.3,1.5c0.3,2,0.5,3.9,0.5,5.6l-26.9,7
		l1.2,4.6l25.4-6.8c-1.3,8.5-6.6,15.5-22.3,22.5c1.2,0.7,2.9,2.4,3.6,3.6c16.7-7.5,22.7-15.7,24.2-25.4c7.7,8.7,18.3,11.4,33.1,9.7
		c0.2-1.4,0.9-3.8,1.9-5.3C314.7,236.2,304.3,234,297.5,226.5z"/>
	<path class="st0" d="M263.1,206.4l3.6-3.3c-1.9-2.7-6-6.6-9.4-9l-3.4,3.1C257.3,199.9,261.4,203.7,263.1,206.4z"/>
	<path class="st0" d="M289.2,192.6l19.1-5.1c-1,5.8-3.6,10.7-7.5,14.8c-2.9-2.1-7.3-4.3-10.9-6l-3.1,3.1c3.6,1.7,7.9,4.1,10.6,6.3
		c-4.3,3.9-10.1,7-16.4,9.7c1.2,0.7,3.2,2.4,3.9,3.6c16.2-7.5,28.1-17.9,29.3-36l-3.9-1.1l-1,0.5l-17.7,4.6c0.7-1.7,1.5-3.4,1.7-5.1
		l-5.3-0.2c-1,5.8-5.3,13.1-10.4,17.9c1.2,0.5,3.1,1.9,4.1,2.9C284.4,199.6,287,196.2,289.2,192.6z"/>
	<path class="st0" d="M366.9,192.4l-12.2,3.1c-0.4-2.9-1.2-5.6-1.9-8.5l13.1-3.4l-1.2-4.6l-25.2,6.8l-1.9-7.5l27.3-7.3l-1.2-4.8
		l-32.2,8.5l6.8,25.4c2.6,9.7,5.8,22.5,3.6,32.9c1.2,0,3.6,0.7,4.8,1.2c2.2-10.7-0.9-25.4-3.6-35.6l-2.2-8.2l7.5-1.9
		c4.1,16.7,7,31.7,1.2,42.1c1.5,0.2,3.4,1.4,4.4,2.4c4.8-8.7,4.3-20.1,1.9-32.9l7.7-1.9c3.6,16.2,4.3,22.2,3.6,23.9
		c-0.2,1-0.7,1.3-1.7,1.5c-1,0.2-3.1,0.7-5.8,1.2c1,1.2,1.7,2.6,2.2,4.1c2.6-0.7,5-1.4,6.5-1.9c1.7-0.5,2.7-1.2,3.4-2.9
		c1.2-2.6,0-9.7-4.4-29.5C367.1,193.9,366.9,192.4,366.9,192.4z"/>
	<path class="st0" d="M392.1,173l-12.7,3.4c-1.2-5.3-2.6-10.9-4.1-16.2l-4.8,1.2c1.4,5.6,2.9,11.1,4.1,16.2l-7.7,1.9l1.2,4.8
		l7.5-1.9c3.4,16.2,4.6,30.8-1.7,41.4c1.2,0.5,3.4,1.4,4.6,2.4c6.8-11.9,5.6-27.6,1.7-45l8.5-2.2c5.8,25.1,7.5,34.1,6.5,36.5
		c-0.5,1.2-1,1.5-2.2,1.7c-1.5,0.2-4.4,1.2-7.5,1.7c1.2,1.3,2.2,2.9,2.7,4.4c3.2-0.7,6.3-1.5,8-2.2c2-0.7,3.2-1.7,3.9-3.6
		c1.2-3.4-0.5-13.1-7.5-42.1C392.6,174.9,392.1,173,392.1,173z"/>
	<polygon class="st0" points="70.8,269.6 63.6,258.2 62.8,271.7 49.8,275.1 62.3,280 61.6,293.3 70.1,282.9 82.4,287.7 75.2,276.6 
		83.6,266.2 	"/>
	<polygon class="st0" points="437.1,172.6 429.8,161.4 429.1,174.7 416.3,178.1 428.6,183 427.9,196.5 436.3,186.1 448.9,191 
		441.7,179.6 450.1,169.2 	"/>
</g>
</svg>
